<svg width="40" height="30" viewBox="0 0 40 30" fill="none" xmlns="http://www.w3.org/2000/svg">
<path d="M20.7766 25.0775C20.1258 25.6408 19.0689 25.6408 18.4181 25.0775L10.0881 17.8668C9.43728 17.3035 9.43728 16.3886 10.0881 15.8253C10.7389 15.262 11.7957 15.262 12.4465 15.8253L19.6 22.0175L26.7534 15.8298C27.4042 15.2665 28.4611 15.2665 29.1119 15.8298C29.7627 16.3931 29.7627 17.308 29.1119 17.8713L20.7818 25.082L20.7766 25.0775ZM29.1067 9.21402L20.7766 16.4247C20.1258 16.988 19.0689 16.988 18.4181 16.4247L10.0881 9.21402C9.43728 8.65069 9.43728 7.73583 10.0881 7.1725C10.7389 6.60917 11.7957 6.60917 12.4465 7.1725L19.6 13.3647L26.7534 7.17701C27.4042 6.61367 28.4611 6.61367 29.1119 7.17701C29.7627 7.74034 29.7627 8.65519 29.1119 9.21853L29.1067 9.21402Z" fill="#30E3CA"/>
</svg>
