<svg width="79" height="70" viewBox="0 0 79 70" fill="none" xmlns="http://www.w3.org/2000/svg">
<path d="M48.487 0.171426C46.3884 -0.498354 44.2033 0.854876 43.5985 3.1786L27.7972 64.4157C27.1923 66.7394 28.4144 69.1588 30.5131 69.8286C32.6117 70.4984 34.7967 69.1451 35.4016 66.8214L51.2028 5.58434C51.8077 3.26062 50.5856 0.841207 48.487 0.171426ZM58.4368 16.5879C56.8937 18.2965 56.8937 21.0713 58.4368 22.7799L69.4606 35L58.4245 47.2201C56.8814 48.9287 56.8814 51.7035 58.4245 53.4121C59.9675 55.1208 62.4735 55.1208 64.0166 53.4121L77.8427 38.1029C79.3858 36.3942 79.3858 33.6194 77.8427 31.9108L64.0166 16.6015C62.4735 14.8929 59.9675 14.8929 58.4245 16.6015L58.4368 16.5879ZM20.5756 16.5879C19.0325 14.8793 16.5265 14.8793 14.9834 16.5879L1.15732 31.8971C-0.385772 33.6058 -0.385772 36.3806 1.15732 38.0892L14.9834 53.3985C16.5265 55.1071 19.0325 55.1071 20.5756 53.3985C22.1186 51.6898 22.1186 48.915 20.5756 47.2064L9.53938 35L20.5756 22.7799C22.1186 21.0713 22.1186 18.2965 20.5756 16.5879Z" fill="#30E3CA"/>
</svg>
