<svg width="80" height="80" viewBox="0 0 80 80" fill="none" xmlns="http://www.w3.org/2000/svg">
<path d="M39.9821 80C38.7825 80 37.5649 79.7143 36.5085 79.1745L25.4611 73.3803C23.8138 72.5548 24.6195 72.2691 25.1567 72.1103C27.359 71.4277 27.8066 71.2849 30.1522 70.0943C30.4029 69.9673 30.7252 70.0149 30.9758 70.1578L39.4629 74.6185C39.7672 74.7773 40.197 74.7773 40.4834 74.6185L73.5542 57.6962C73.8586 57.5375 74.0555 57.22 74.0555 56.9025V23.0578C74.0555 22.7245 73.8586 22.4229 73.5363 22.2482L40.4834 5.3418C40.1791 5.18305 39.7672 5.18305 39.4629 5.3418L6.42793 22.2641C6.10564 22.4229 5.90868 22.7403 5.90868 23.0737V56.9025C5.90868 57.22 6.10564 57.5375 6.42793 57.6803L15.4879 62.3157C20.4118 64.4905 23.4199 61.9347 23.4199 59.3472V25.947C23.4199 25.4708 23.8496 25.1057 24.3868 25.1057H28.5765C29.0958 25.1057 29.5434 25.4708 29.5434 25.947V59.363C29.5434 65.1731 25.9624 68.5068 19.7493 68.5068C17.8335 68.5068 16.3295 68.5068 12.1397 66.6653L3.47359 62.2363C1.32498 61.141 0 59.0932 0 56.8866V23.0578C0 20.8671 1.32498 18.8035 3.47359 17.7081L36.5085 0.785792C38.6034 -0.261931 41.3787 -0.261931 43.4557 0.785792L76.5264 17.724C78.675 18.8193 80 20.8671 80 23.0737V56.9025C80 59.0932 78.675 61.141 76.5264 62.2522L43.4557 79.1745C42.3993 79.7143 41.1996 80 39.9821 80ZM66.6786 46.6475C66.6786 40.3135 61.8442 38.6308 51.692 37.4402C41.4145 36.2337 40.376 35.6146 40.376 33.4874C40.376 31.7254 41.2534 29.3759 48.863 29.3759C55.6491 29.3759 58.1558 30.6776 59.1943 34.7415C59.2838 35.1225 59.6777 35.4083 60.1253 35.4083H64.4226C64.6911 35.4083 64.9418 35.313 65.1209 35.1384C65.2999 34.9638 65.3894 34.7257 65.3715 34.4875C64.709 27.4869 59.4628 24.2326 48.863 24.2326C39.427 24.2326 33.8048 27.7567 33.8048 33.6779C33.8048 40.0913 39.4091 41.8692 48.4512 42.663C59.2838 43.5996 60.1253 45.0124 60.1253 46.9015C60.1253 50.1716 57.1531 51.5686 50.188 51.5686C41.4324 51.5686 39.5166 49.616 38.872 45.7585C38.8004 45.3458 38.4064 45.0441 37.923 45.0441H33.6437C33.1065 45.0441 32.6947 45.4251 32.6947 45.8855C32.6947 50.8225 35.7207 56.712 50.2059 56.712C60.6625 56.6961 66.6786 53.0291 66.6786 46.6475Z" fill="#30E3CA"/>
</svg>
