<svg width="70" height="70" viewBox="0 0 70 70" fill="none" xmlns="http://www.w3.org/2000/svg">
<path d="M49.6409 2.56607L43.0165 9.18995L60.8093 26.9814L67.4337 20.3575C70.8554 16.9361 70.8554 11.3933 67.4337 7.97192L62.0411 2.56607C58.6195 -0.855356 53.0763 -0.855356 49.6546 2.56607H49.6409ZM39.9233 12.2829L8.01949 44.198C6.59607 45.6213 5.55588 47.3867 4.98103 49.3164L0.135919 65.7803C-0.20625 66.9436 0.108546 68.189 0.957125 69.0375C1.8057 69.886 3.0512 70.2008 4.20089 69.8723L20.6661 65.0276C22.5959 64.4528 24.3615 63.4127 25.7849 61.9894L57.7161 30.0743L39.9233 12.2829Z" fill="#30E3CA"/>
</svg>
