<svg width="474" height="421" viewBox="0 0 474 421" fill="none" xmlns="http://www.w3.org/2000/svg">
<g clip-path="url(#clip0_19_565)">
<path d="M116.997 384.15L117.961 406.162L117.961 406.163C118.124 409.884 116.915 413.521 114.602 416.277C112.288 419.032 109.059 420.679 105.624 420.856L105.203 420.878L103.625 384.838L116.997 384.15Z" fill="#2F2E41"/>
<path d="M405.92 346.951C396.242 367.411 383.965 387.197 368.432 405.105C368.087 405.51 367.739 405.904 367.387 406.305L330.585 387.433C330.81 387.028 331.057 386.573 331.323 386.076C347.132 356.778 442.561 178.058 439.545 137.58C439.897 140.919 451.208 251.323 405.92 346.951Z" fill="#E6E6E6"/>
<path d="M375.532 408.746C375.017 409.063 374.489 409.374 373.957 409.674L346.349 395.517C346.735 395.22 347.185 394.87 347.702 394.475C356.16 387.897 381.31 368.162 405.92 346.952C432.367 324.159 458.195 299.668 462.03 287.978C461.251 290.659 437.044 372.143 375.532 408.746Z" fill="#E6E6E6"/>
<path d="M45.9246 419.998C69.4557 419.998 88.5314 399.336 88.5314 373.848C88.5314 348.36 69.4557 327.697 45.9246 327.697C22.3936 327.697 3.31787 348.36 3.31787 373.848C3.31787 399.336 22.3936 419.998 45.9246 419.998Z" fill="#30E3CA"/>
<path d="M62.9915 354.481H28.8578C27.3495 354.483 25.9035 355.133 24.837 356.288C23.7704 357.443 23.1705 359.009 23.1688 360.643V387.052C23.1705 388.686 23.7704 390.252 24.8369 391.407C25.9035 392.563 27.3495 393.212 28.8578 393.214H62.9915C64.4998 393.212 65.9458 392.563 67.0124 391.407C68.0789 390.252 68.6788 388.686 68.6805 387.052V360.643C68.6788 359.009 68.0789 357.443 67.0123 356.288C65.9458 355.133 64.4998 354.483 62.9915 354.481ZM62.9915 358.002C63.1952 358.003 63.3981 358.032 63.5953 358.087L45.9286 373.352L28.3651 358.056C28.5272 358.02 28.6923 358.002 28.8577 358.002H62.9915ZM62.9915 389.693H28.8578C28.2114 389.692 27.5917 389.414 27.1346 388.919C26.6775 388.423 26.4204 387.752 26.4197 387.052V360.88L44.9062 376.98C45.1941 377.231 45.5522 377.368 45.9215 377.369C46.2909 377.369 46.6495 377.234 46.9383 376.984L65.4296 361.007V387.052C65.4289 387.752 65.1718 388.423 64.7147 388.919C64.2576 389.414 63.6379 389.692 62.9915 389.693Z" fill="#3F3D56"/>
<path d="M210.354 307.219L219.887 307.304C220.852 307.312 221.807 307.093 222.685 306.661C223.563 306.228 224.344 305.594 224.973 304.801C225.601 304.009 226.063 303.077 226.325 302.072C226.587 301.066 226.644 300.011 226.49 298.979C226.326 297.869 225.923 296.816 225.314 295.905C224.705 294.994 223.907 294.251 222.984 293.735C222.061 293.22 221.04 292.945 220.002 292.935C218.964 292.925 217.938 293.179 217.007 293.677L208.016 298.482L177.267 305.91L164.093 291.321L156.526 304.82L174.303 319.697L210.354 307.219Z" fill="#FFB8B8"/>
<path d="M208.567 413.906L197.335 416.246C189.663 390.05 181.351 365.243 181.351 346.056C170.494 359.145 157.03 366.633 141.176 368.985L142.904 339.973L155.863 332.487L175.698 322.57C177.435 321.702 179.309 321.2 181.219 321.091C184.932 320.88 188.586 322.163 191.478 324.695C194.37 327.227 196.295 330.829 196.883 334.806L208.567 413.906Z" fill="#2F2E41"/>
<path d="M154.783 365.475L150.307 369.16C148.382 370.745 146.108 371.757 143.71 372.095C141.313 372.434 138.875 372.087 136.64 371.09C123.817 360.68 114.708 363.751 106.452 379.464C96.5489 367.358 94.1057 349.874 102.944 331.784L151.975 332.954L161.911 329.679L154.783 365.475Z" fill="#2F2E41"/>
<path d="M138.454 419.69C135.645 420.626 132.62 420.462 129.912 419.226C127.203 417.989 124.982 415.76 123.638 412.928C119.231 408.724 115.513 402.705 112.289 395.386C109.975 390.017 107.988 384.49 106.341 378.839C104.11 371.374 107.841 363.219 114.785 360.986C114.992 360.92 115.201 360.857 115.412 360.798C124.683 358.22 134.203 364.012 137.371 373.794L146.586 402.239C147.13 403.919 147.363 405.699 147.273 407.478C147.182 409.256 146.769 410.997 146.057 412.602C145.345 414.207 144.348 415.645 143.123 416.833C141.898 418.02 140.469 418.935 138.917 419.525C138.764 419.583 138.61 419.638 138.454 419.69Z" fill="#2F2E41"/>
<path opacity="0.2" d="M110.72 392.147C110.72 392.147 121.52 405.249 123.68 412.736L110.72 392.147Z" fill="black"/>
<path d="M68.8333 330.314L65.2188 339.87C64.8531 340.836 64.6865 341.878 64.7306 342.922C64.7747 343.966 65.0285 344.987 65.4742 345.913C65.92 346.84 66.547 347.65 67.3115 348.287C68.076 348.924 68.9597 349.373 69.9008 349.603C70.9137 349.849 71.966 349.835 72.9729 349.561C73.9798 349.287 74.9132 348.761 75.6981 348.025C76.483 347.288 77.0973 346.363 77.4918 345.323C77.8862 344.283 78.0496 343.156 77.969 342.035L77.1902 331.209L82.2474 297.526L99.6462 289.698L90.8865 277.073L71.531 289.423L68.8333 330.314Z" fill="#FFB8B8"/>
<path d="M155.215 331.784C142.803 354.368 118.059 363.112 96.8654 345.428C100.593 332.16 112.63 295.49 104.854 294.086C88.344 301.586 88.3201 283.978 85.2319 275.165L122.816 260.191L143.12 266.274L147.282 267.874C149.99 268.915 152.34 270.83 154.014 273.36C155.688 275.891 156.606 278.916 156.646 282.029C148.117 295.375 141.803 309.613 155.215 331.784Z" fill="#30E3CA"/>
<path d="M159.967 313.536L145.063 300.2L150.031 269.083L170.335 292.479L159.967 313.536Z" fill="#30E3CA"/>
<path d="M407.27 99.7686H405.139V36.5742C405.139 26.8741 401.582 17.5713 395.249 10.7123C388.917 3.85335 380.329 0 371.373 0H247.768C238.812 0 230.224 3.85335 223.891 10.7123C217.559 17.5713 214.002 26.8741 214.002 36.5742V383.264C214.002 392.964 217.559 402.267 223.891 409.126C230.224 415.985 238.812 419.839 247.768 419.839H371.373C380.328 419.839 388.917 415.985 395.249 409.126C401.581 402.267 405.139 392.964 405.139 383.264V144.751H407.269L407.27 99.7686Z" fill="#3F3D56"/>
<path d="M372.736 9.51442H356.601C357.344 11.485 357.627 13.6231 357.427 15.7403C357.226 17.8575 356.548 19.8889 355.452 21.6554C354.357 23.4219 352.876 24.8693 351.142 25.8701C349.408 26.8708 347.473 27.3943 345.508 27.3943H274.697C272.732 27.3941 270.798 26.8706 269.064 25.8698C267.33 24.8691 265.85 23.4219 264.754 21.6556C263.658 19.8894 262.98 17.8583 262.78 15.7414C262.579 13.6244 262.862 11.4866 263.604 9.51616H248.532C241.844 9.51616 235.43 12.3939 230.701 17.5163C225.972 22.6387 223.316 29.5861 223.316 36.8303V383.01C223.316 390.254 225.972 397.201 230.701 402.324C235.43 407.446 241.844 410.324 248.532 410.324H372.731C379.419 410.324 385.833 407.446 390.562 402.324C395.291 397.201 397.948 390.254 397.948 383.01V383.01V36.8285C397.948 29.5844 395.291 22.6369 390.562 17.5145C385.833 12.3921 379.419 9.5144 372.731 9.5144H372.736L372.736 9.51442Z" fill="#1A1D29"/>
<path d="M310.847 390.978C318.495 390.978 324.695 384.263 324.695 375.979C324.695 367.696 318.495 360.98 310.847 360.98C303.2 360.98 297 367.696 297 375.979C297 384.263 303.2 390.978 310.847 390.978Z" fill="#E6E6E6"/>
<path d="M254.672 237.27C253.363 237.27 252.298 238.587 252.298 240.205C252.298 241.823 253.363 243.14 254.672 243.14H366.591C367.9 243.14 368.965 241.823 368.965 240.205C368.965 238.587 367.9 237.27 366.591 237.27H254.672Z" fill="#E6E6E6"/>
<path d="M254.672 306.496C253.363 306.496 252.298 307.812 252.298 309.431C252.298 311.049 253.363 312.366 254.672 312.366H366.591C367.9 312.366 368.965 311.049 368.965 309.431C368.965 307.812 367.9 306.496 366.591 306.496H254.672Z" fill="#E6E6E6"/>
<path d="M254.672 254.88C253.363 254.88 252.298 256.197 252.298 257.815C252.298 259.434 253.363 260.751 254.672 260.751H302.831C304.14 260.751 305.205 259.434 305.205 257.815C305.205 256.197 304.14 254.88 302.831 254.88H254.672Z" fill="#E6E6E6"/>
<path d="M254.672 271.667C253.363 271.667 252.298 272.984 252.298 274.602C252.298 276.22 253.363 277.537 254.672 277.537H366.591C367.9 277.537 368.965 276.22 368.965 274.602C368.965 272.984 367.9 271.667 366.591 271.667H254.672Z" fill="#E6E6E6"/>
<path d="M254.672 289.277C253.363 289.277 252.298 290.594 252.298 292.212C252.298 293.831 253.363 295.148 254.672 295.148H302.831C304.14 295.148 305.205 293.831 305.205 292.212C305.205 290.594 304.14 289.277 302.831 289.277H254.672Z" fill="#E6E6E6"/>
<path d="M275.8 103.624H345.47C346.239 103.625 346.977 103.956 347.521 104.546C348.066 105.135 348.372 105.934 348.373 106.768V185.36C348.372 186.194 348.066 186.993 347.521 187.583C346.977 188.172 346.239 188.504 345.47 188.505H275.8C275.031 188.504 274.293 188.172 273.749 187.583C273.205 186.993 272.898 186.194 272.898 185.36V106.768C272.898 105.934 273.205 105.135 273.749 104.546C274.293 103.956 275.031 103.625 275.8 103.624Z" fill="#30E3CA"/>
<path d="M330.625 172.297C330.884 172.298 331.14 172.243 331.38 172.136C331.619 172.029 331.837 171.872 332.02 171.674C332.204 171.476 332.349 171.24 332.449 170.981C332.548 170.722 332.599 170.444 332.599 170.164C332.6 169.883 332.549 169.605 332.45 169.346C332.35 169.087 332.205 168.851 332.022 168.653C331.839 168.454 331.621 168.297 331.382 168.19C331.142 168.083 330.886 168.028 330.627 168.028H290.646C290.387 168.027 290.13 168.082 289.89 168.189C289.651 168.296 289.433 168.453 289.25 168.651C289.066 168.849 288.921 169.085 288.821 169.344C288.722 169.603 288.671 169.881 288.671 170.162C288.671 170.442 288.722 170.72 288.821 170.979C288.92 171.239 289.065 171.474 289.248 171.672C289.432 171.871 289.649 172.028 289.889 172.135C290.128 172.243 290.385 172.298 290.644 172.297H330.625Z" fill="#3F3D56"/>
<path d="M330.625 159.72C331.147 159.72 331.649 159.495 332.018 159.095C332.388 158.695 332.595 158.152 332.595 157.585C332.595 157.019 332.388 156.476 332.018 156.076C331.649 155.676 331.147 155.451 330.625 155.451H290.646C290.123 155.45 289.622 155.675 289.252 156.075C288.882 156.475 288.674 157.018 288.674 157.584C288.674 158.151 288.881 158.694 289.25 159.094C289.62 159.495 290.121 159.72 290.644 159.72H330.625Z" fill="#3F3D56"/>
<path d="M310.635 119.831C313.089 119.831 315.487 120.619 317.527 122.095C319.567 123.572 321.157 125.67 322.096 128.125C323.035 130.581 323.281 133.282 322.802 135.889C322.323 138.496 321.142 140.89 319.407 142.769C317.672 144.648 315.462 145.928 313.055 146.446C310.649 146.965 308.154 146.699 305.888 145.682C303.621 144.665 301.684 142.943 300.32 140.733C298.957 138.523 298.23 135.925 298.23 133.268C298.233 129.705 299.542 126.29 301.867 123.771C304.193 121.252 307.346 119.835 310.635 119.831Z" fill="#3F3D56"/>
<path d="M152.353 256.118H115.525C114.768 256.117 114.041 255.79 113.506 255.21C112.97 254.63 112.669 253.843 112.668 253.023V235.828C112.668 229.717 114.909 223.857 118.898 219.536C122.887 215.215 128.298 212.788 133.939 212.788C139.581 212.788 144.991 215.215 148.98 219.536C152.969 223.857 155.211 229.717 155.211 235.828V253.023C155.21 253.843 154.908 254.63 154.373 255.21C153.837 255.79 153.111 256.117 152.353 256.118Z" fill="#2F2E41"/>
<path d="M151.69 246.292C155.821 238.106 153.043 227.842 145.486 223.367C137.928 218.892 128.452 221.901 124.321 230.087C120.19 238.273 122.967 248.537 130.525 253.012C138.082 257.487 147.558 254.478 151.69 246.292Z" fill="#FFB6B6"/>
<path d="M160.243 237.548H137.723L137.492 234.046L136.338 237.548H132.87L132.413 230.607L130.124 237.548H123.415V237.204C123.42 232.372 125.194 227.739 128.349 224.322C131.503 220.905 135.78 218.983 140.241 218.978H143.416C147.877 218.983 152.154 220.905 155.309 224.322C158.463 227.739 160.238 232.371 160.243 237.204V237.548Z" fill="#2F2E41"/>
<path d="M137.539 259.328C137.37 259.327 137.2 259.311 137.033 259.279L120.544 256.128V226.608H138.696L138.246 227.176C131.994 235.075 136.704 247.882 140.069 254.814C140.317 255.322 140.427 255.895 140.388 256.468C140.348 257.04 140.16 257.589 139.845 258.051C139.581 258.447 139.235 258.768 138.834 258.99C138.433 259.212 137.989 259.328 137.539 259.328Z" fill="#2F2E41"/>
<path d="M192.44 405.071L212.785 405.07H212.786C216.224 405.071 219.522 406.55 221.953 409.184C224.384 411.817 225.75 415.389 225.751 419.114V419.57L192.441 419.571L192.44 405.071Z" fill="#2F2E41"/>
<path d="M473.467 421H0.532584C0.391334 421 0.255869 420.939 0.15599 420.831C0.056111 420.723 0 420.576 0 420.423C0 420.27 0.056111 420.123 0.15599 420.015C0.255869 419.907 0.391334 419.846 0.532584 419.846H473.467C473.609 419.846 473.744 419.907 473.844 420.015C473.944 420.123 474 420.27 474 420.423C474 420.576 473.944 420.723 473.844 420.831C473.744 420.939 473.609 421 473.467 421Z" fill="#CACACA"/>
</g>
<defs>
<clipPath id="clip0_19_565">
<rect width="474" height="421" fill="white"/>
</clipPath>
</defs>
</svg>
