<svg width="70" height="70" viewBox="0 0 70 70" fill="none" xmlns="http://www.w3.org/2000/svg">
<g clip-path="url(#clip0_21_91)">
<path d="M39.375 14.9434V48.125C39.375 50.5449 37.4199 52.5 35 52.5C32.5801 52.5 30.625 50.5449 30.625 48.125V14.9434L20.5898 24.9785C18.8809 26.6875 16.1055 26.6875 14.3965 24.9785C12.6875 23.2695 12.6875 20.4941 14.3965 18.7852L31.8965 1.28516C33.6055 -0.423828 36.3809 -0.423828 38.0898 1.28516L55.5898 18.7852C57.2988 20.4941 57.2988 23.2695 55.5898 24.9785C53.8809 26.6875 51.1055 26.6875 49.3965 24.9785L39.375 14.9434ZM8.75 48.125H26.25C26.25 52.9512 30.1738 56.875 35 56.875C39.8262 56.875 43.75 52.9512 43.75 48.125H61.25C66.0762 48.125 70 52.0488 70 56.875V61.25C70 66.0762 66.0762 70 61.25 70H8.75C3.92383 70 0 66.0762 0 61.25V56.875C0 52.0488 3.92383 48.125 8.75 48.125ZM59.0625 62.3438C60.8809 62.3438 62.3438 60.8809 62.3438 59.0625C62.3438 57.2441 60.8809 55.7812 59.0625 55.7812C57.2441 55.7812 55.7812 57.2441 55.7812 59.0625C55.7812 60.8809 57.2441 62.3438 59.0625 62.3438Z" fill="#30E3CA"/>
</g>
<defs>
<clipPath id="clip0_21_91">
<rect width="70" height="70" fill="white"/>
</clipPath>
</defs>
</svg>
